<svg xmlns="http://www.w3.org/2000/svg" width="147" height="30" fill="#fff"><path d="M20.934 7.865c-.491 1.003-1.147 2.027-1.968 3.072a24.84 24.84 0 0 1-2.752 2.96 22.816 22.816 0 0 1-3.184 2.448c-1.11.704-2.208 1.216-3.296 1.536a12.745 12.745 0 0 0-.608 1.696 28.627 28.627 0 0 0-.512 2.048c-.15.704-.262 1.397-.336 2.08-.075.683-.112 1.28-.112 1.792 0 .47-.107.8-.32.992-.214.192-.448.277-.704.256a1.143 1.143 0 0 1-.704-.336 1.11 1.11 0 0 1-.352-.752 1.306 1.306 0 0 1-.608-.272 1.055 1.055 0 0 1-.352-.56 3.186 3.186 0 0 1-.096-1.04c.021-.395.053-.741.096-1.04.149-.789.25-1.573.304-2.352.053-.778.133-1.563.24-2.352a1.564 1.564 0 0 1-.656-.288c-.203-.149-.283-.363-.24-.64-.32 0-.635-.048-.944-.144-.31-.096-.475-.346-.496-.752 0-.277.106-.501.32-.672a2.61 2.61 0 0 1 .784-.416c.309-.106.629-.192.96-.256.331-.064.603-.117.816-.16.171-1.13.379-2.277.624-3.44.245-1.163.549-2.288.912-3.376a1.09 1.09 0 0 1 .512-.607c.256-.149.522-.235.8-.256.277-.021.522.032.736.16s.309.32.288.576c.17-.128.357-.219.56-.272.203-.053.4-.069.592-.048.32.021.554.102.704.24s.192.379.128.72c-.171.79-.395 1.574-.672 2.352a54.672 54.672 0 0 0-.768 2.32c1.173-.704 2.25-1.6 3.232-2.688.256-.277.581-.688.976-1.232s.763-1.13 1.104-1.76c.341-.629.619-1.243.832-1.84s.267-1.099.16-1.504c-.256-.042-.512-.069-.768-.08s-.512-.016-.768-.016a9.16 9.16 0 0 0-2.624.4c-.896.267-1.771.613-2.624 1.04-.854.426-1.664.911-2.432 1.455a23.24 23.24 0 0 0-2.08 1.648c-.342.299-.662.603-.96.912-.299.31-.598.613-.896.912-.214.214-.432.294-.656.24a.714.714 0 0 1-.496-.416c-.107-.224-.133-.512-.08-.863.053-.352.24-.72.56-1.104a5.246 5.246 0 0 0-.448.527c-.171.225-.352.433-.544.624s-.384.32-.576.384-.374 0-.544-.192a1.614 1.614 0 0 1-.304-.672 1.163 1.163 0 0 1 .08-.736c.085-.256.261-.56.528-.912.266-.352.565-.704.896-1.056.331-.352.661-.688.992-1.007.331-.32.603-.555.816-.704a25.776 25.776 0 0 1 2.848-1.84 18.595 18.595 0 0 1 3.264-1.44 15.464 15.464 0 0 1 3.44-.72 9.412 9.412 0 0 1 3.376.288c.405.107.763.299 1.072.576.309.278.571.598.784.96l.384.128c.555.171.997.464 1.328.88.331.416.571.885.72 1.408.149.523.197 1.067.144 1.632a4.354 4.354 0 0 1-.432 1.551zm-1.92-1.856c-.278.704-.651 1.43-1.12 2.176s-.981 1.472-1.536 2.176-1.136 1.371-1.744 2c-.608.629-1.2 1.189-1.776 1.68.576-.341 1.216-.821 1.92-1.44a17.998 17.998 0 0 0 1.984-2.048 15.167 15.167 0 0 0 1.584-2.304c.437-.789.667-1.536.688-2.24z"/><path d="M40.134 5.849c-.085.619-.363 1.291-.832 2.016a17.79 17.79 0 0 1-1.744 2.24 38.786 38.786 0 0 1-2.288 2.32 92.78 92.78 0 0 1-2.48 2.24c-.822.715-1.6 1.376-2.336 1.984-.736.608-1.36 1.125-1.872 1.552.277.107.65.267 1.12.48.469.214.938.459 1.408.736s.891.571 1.264.88c.373.31.592.613.656.912l.192.16c.192.128.368.272.528.432s.288.331.384.512c.096.181.139.374.128.576-.011.203-.102.422-.272.656a3.815 3.815 0 0 0-.208.24 1.205 1.205 0 0 1-.24.24c-.107.085-.24.085-.4 0a4.344 4.344 0 0 0-.4-.192c-.47-.235-.976-.496-1.52-.784s-1.094-.565-1.648-.832a15.022 15.022 0 0 0-1.68-.688 8.2 8.2 0 0 0-1.616-.384c-.149.085-.293.299-.432.64-.139.342-.272.747-.4 1.216s-.251.981-.368 1.536c-.118.555-.229 1.088-.336 1.6-.107.512-.208.981-.304 1.408a8.683 8.683 0 0 1-.272.992c-.235.576-.539.859-.912.848-.374-.011-.667-.315-.88-.912-.299 0-.523-.107-.672-.32-.149-.213-.256-.464-.32-.752s-.085-.586-.064-.896c.021-.309.042-.571.064-.784.171-1.322.4-2.634.688-3.936.288-1.301.549-2.613.784-3.936a41.76 41.76 0 0 1 .608-2.944c.234-.96.469-1.941.704-2.944.106-.555.203-1.104.288-1.648.085-.544.192-1.093.32-1.648.064-.299.203-.496.416-.592.213-.096.437-.112.672-.048s.443.182.624.352a.752.752 0 0 1 .24.64c.085-.234.24-.378.464-.432s.448-.037.672.048c.224.085.416.235.576.448s.219.491.176.832a10.49 10.49 0 0 1-.288 1.76 34.83 34.83 0 0 1-.48 1.728 57.745 57.745 0 0 0 3.696-3.712 66.019 66.019 0 0 0 3.376-4.032c.213-.298.389-.619.528-.96a2.1 2.1 0 0 0 .144-1.056 6.326 6.326 0 0 0-1.792 0 15.177 15.177 0 0 0-3.696 1.008c-.587.246-1.136.485-1.648.72-.619.299-1.232.614-1.84.944a66.34 66.34 0 0 0-1.84 1.04c-.299.192-.603.389-.912.592a8.874 8.874 0 0 1-.912.528c-.192.085-.368.096-.528.032a.955.955 0 0 1-.416-.336 1.401 1.401 0 0 1-.24-.544.985.985 0 0 1 .032-.56 3.34 3.34 0 0 1-.4.288 3.34 3.34 0 0 0-.4.288c-.171.107-.363.118-.576.032a1.036 1.036 0 0 1-.512-.448 1.215 1.215 0 0 1-.16-.736c.021-.277.16-.544.416-.8.491-.469 1.184-1.008 2.08-1.616s1.898-1.194 3.008-1.76A30.104 30.104 0 0 1 28.742.809c1.216-.437 2.384-.725 3.504-.864s2.138-.09 3.056.144a3.473 3.473 0 0 1 2.144 1.568c.875.384 1.579.928 2.112 1.632.533.704.725 1.558.576 2.56zm-2.4-.576a8.186 8.186 0 0 1-.848 1.616c-.374.565-.784 1.12-1.232 1.664a32.867 32.867 0 0 1-1.376 1.568c-.469.502-.896.955-1.28 1.36a14.26 14.26 0 0 0 2.112-1.856 60.077 60.077 0 0 0 1.92-2.144c.235-.277.421-.624.56-1.04s.186-.805.144-1.168zm14.144-3.392c.085.277.053.501-.096.672a1.764 1.764 0 0 1-.608.432 5.075 5.075 0 0 1-.8.288 7.712 7.712 0 0 0-.672.208 9.539 9.539 0 0 0-1.776.784c-.587.331-1.157.646-1.712.944l-.8 2.944c.17-.085.442-.245.816-.48a8.14 8.14 0 0 1 1.168-.608c.405-.17.778-.277 1.12-.32.341-.042.554.085.64.384a.986.986 0 0 1 0 .608 1.276 1.276 0 0 1-.32.544c.32-.149.667-.256 1.04-.32s.677-.059.912.016c.234.075.352.219.352.432 0 .214-.224.523-.672.928-.469.405-.965.784-1.488 1.136-.523.352-1.062.688-1.616 1.008-.555.32-1.109.629-1.664.928-.555.299-1.088.619-1.6.96a25.282 25.282 0 0 0-1.264 4.128c-.31 1.43-.592 2.848-.848 4.256.363-.277.725-.56 1.088-.848.362-.288.725-.56 1.088-.816.149-.106.314-.176.496-.208a1.29 1.29 0 0 1 .496 0c.149.032.25.112.304.24.053.128.026.31-.08.544a1.364 1.364 0 0 1-.192.368c-.085.118-.16.229-.224.336.085-.042.165-.096.24-.16.074-.064.154-.117.24-.16.149-.085.314-.144.496-.176.181-.032.341-.027.48.016a.435.435 0 0 1 .288.256c.053.128.026.309-.08.544-.128.256-.443.677-.944 1.264a28.32 28.32 0 0 1-1.68 1.792c-.619.608-1.216 1.163-1.792 1.664s-.992.816-1.248.944a1.169 1.169 0 0 1-.928 0c-.32-.128-.534-.342-.64-.64a1.71 1.71 0 0 1-.704-.32.793.793 0 0 1-.352-.672c.043-.661.096-1.317.16-1.968l.192-1.936a92.716 92.716 0 0 1 1.28-8.592 125.476 125.476 0 0 1 1.984-8.464c-.342-.042-.619-.149-.832-.32-.213-.17-.342-.368-.384-.592a1.01 1.01 0 0 1 .112-.672c.117-.224.314-.411.592-.56.17-.085.48-.234.928-.448.448-.213.96-.437 1.536-.672a39.644 39.644 0 0 1 1.824-.688c.64-.224 1.232-.4 1.776-.528s1.013-.176 1.408-.144.624.187.688.464c.128.406.021.726-.32.96.149-.042.357-.085.624-.128.266-.042.528-.064.784-.064.277 0 .528.032.752.096s.368.203.432.416zm-8.096 3.584l-.992 4.736 1.504-4.864-.512.128z"/><path d="M70.246 5.849c.106 1.238.016 2.48-.272 3.728s-.715 2.475-1.28 3.68a24.286 24.286 0 0 1-2.048 3.536 43.41 43.41 0 0 1-2.528 3.296 52.523 52.523 0 0 1-2.72 2.976 83.24 83.24 0 0 1-2.672 2.592c-.277.256-.555.507-.832.752-.277.246-.565.485-.864.72a8.44 8.44 0 0 1-.816.56c-.331.202-.635.282-.912.24a1.754 1.754 0 0 1-.768-.288c-.213-.149-.341-.374-.384-.672-.342.042-.603-.005-.784-.144a1.201 1.201 0 0 1-.4-.544 2.013 2.013 0 0 1-.128-.72c0-.277.01-.533.032-.768.17-1.579.384-3.141.64-4.688.256-1.547.501-3.099.736-4.656.064-.384.128-.805.192-1.264.064-.458.133-.928.208-1.408s.155-.949.24-1.408c.085-.458.192-.869.32-1.232.128-.426.325-.752.592-.976.266-.224.522-.352.768-.384a.753.753 0 0 1 .64.208c.181.171.261.448.24.832-.021.32-.085.763-.192 1.328s-.229 1.157-.368 1.776a43.716 43.716 0 0 0-.368 1.808c-.107.587-.171 1.04-.192 1.36.106-.234.218-.613.336-1.136.117-.522.229-1.066.336-1.632.106-.565.213-1.104.32-1.616.106-.512.202-.885.288-1.12.171-.427.389-.747.656-.96.266-.213.522-.325.768-.335a.845.845 0 0 1 .64.24c.181.171.25.448.208.832a9.586 9.586 0 0 1-.368 1.68 26.861 26.861 0 0 0-.464 1.68c-.32 1.238-.63 2.475-.928 3.712a877.854 877.854 0 0 0-.896 3.744 41.982 41.982 0 0 0 4.992-6.352 27.742 27.742 0 0 0 3.328-7.312c.106-.405.171-.811.192-1.216a3.421 3.421 0 0 0-.16-1.216c-.854-.064-1.691-.032-2.512.096s-1.632.32-2.432.576c-.8.256-1.584.555-2.352.896s-1.526.704-2.272 1.088c-.427.235-.854.475-1.28.72s-.854.453-1.28.624c-.363.128-.624.155-.784.08a.38.38 0 0 1-.24-.368c0-.192.058-.4.176-.624.117-.224.272-.421.464-.592.149-.128.304-.298.464-.512.16-.213.325-.384.496-.512a20.053 20.053 0 0 1-2.88 1.44 1.78 1.78 0 0 1-.624.176c-.182.011-.325-.123-.432-.4-.086-.214-.054-.443.096-.688.149-.245.347-.48.592-.704a8.44 8.44 0 0 1 .768-.624l.624-.448a24.157 24.157 0 0 1 5.024-2.832 20.304 20.304 0 0 1 5.6-1.456 5.17 5.17 0 0 1 2.432.272 4.343 4.343 0 0 1 1.984 1.392c.725.235 1.392.619 2 1.152s.954 1.205 1.04 2.015zm-2.336.672a14.826 14.826 0 0 1-.912 4.112 29.277 29.277 0 0 1-1.776 3.856c.298-.469.65-1.05 1.056-1.744.405-.693.768-1.413 1.088-2.16.32-.747.554-1.482.704-2.208.149-.725.096-1.344-.16-1.856zm18.016-4.8c.447.085.699.229.752.432.053.203 0 .405-.16.608-.16.203-.385.395-.672.576a2.242 2.242 0 0 1-.816.336c-.768.128-1.439.288-2.016.48s-1.217.47-1.92.832c-.832 2.539-1.664 5.072-2.496 7.6a102.566 102.566 0 0 0-2.209 7.728 5.55 5.55 0 0 1 .545-.224c.234-.085.465-.139.688-.16.225-.021.422.005.592.08.172.075.256.251.256.528 0 .363-.117.683-.352.96.15-.042.33-.096.545-.16.213-.064.416-.096.607-.096s.357.054.496.16c.139.107.209.288.209.544 0 .341-.119.64-.354.896s-.49.47-.768.64c-.17.107-.527.277-1.072.512-.543.235-1.168.486-1.871.752-.705.267-1.445.518-2.225.752-.779.235-1.488.395-2.128.48s-1.168.08-1.584-.016c-.416-.096-.624-.347-.624-.752-.32.043-.613.005-.88-.112s-.411-.357-.432-.72c-.042-.384.107-.72.448-1.008a5.773 5.773 0 0 1 1.2-.768c.458-.224.933-.416 1.424-.576.49-.16.875-.304 1.152-.432.128-1.301.325-2.592.592-3.872.267-1.28.565-2.554.896-3.824.331-1.269.672-2.528 1.024-3.776.352-1.248.688-2.501 1.008-3.76-.234.064-.49.102-.768.112-.277.011-.527-.021-.752-.096s-.395-.213-.512-.416c-.117-.203-.133-.485-.048-.848-.662.256-1.179.336-1.552.24-.373-.096-.624-.272-.752-.528s-.144-.539-.048-.848.272-.539.528-.688c.427-.235.885-.448 1.376-.64s.96-.373 1.409-.544c.234-.106.617-.235 1.152-.384.531-.149 1.129-.314 1.791-.496a60.91 60.91 0 0 1 2.08-.528c.725-.17 1.414-.314 2.064-.432.65-.117 1.232-.208 1.744-.272s.873-.074 1.088-.032c.383.085.617.219.703.4.086.182.08.379-.016.592a1.584 1.584 0 0 1-.496.592 2.022 2.022 0 0 1-.703.368 7.65 7.65 0 0 0 .943-.208c.246-.074.551-.069.914.016zM78.15 5.562c-.385 1.408-.77 2.816-1.152 4.224a120.932 120.932 0 0 0-1.088 4.288c.469-1.472.949-2.917 1.439-4.336.49-1.418.939-2.864 1.344-4.336l-.543.16zm18.656 4.255a.776.776 0 0 1-.416.512c-.214.107-.438.15-.673.128a1.354 1.354 0 0 1-.655-.24.975.975 0 0 1-.4-.592 1.3 1.3 0 0 1-.063-.416v-.48c-.32.192-.673.24-1.057.144a.957.957 0 0 1-.735-.72 4.018 4.018 0 0 1-.192-1.456c.021-.522 0-1.029-.064-1.52-.726.832-1.456 1.819-2.191 2.96a29.612 29.612 0 0 0-1.984 3.616 27.016 27.016 0 0 0-1.439 3.84c-.374 1.291-.561 2.501-.561 3.632 0 .747.043 1.547.128 2.4.085.854.277 1.621.576 2.304.299.085.618.064.96-.064a5.633 5.633 0 0 0 1.04-.528 11.32 11.32 0 0 0 1.008-.72c.32-.256.587-.458.8-.608.171-.128.373-.261.608-.4.234-.139.469-.229.704-.272.234-.042.448-.016.64.08s.331.315.416.656a.575.575 0 0 1-.031.416c-.064.149-.14.277-.225.384.747-.299 1.216-.075 1.408.672.042.171-.096.459-.416.864-.32.406-.747.832-1.28 1.28-.533.448-1.136.869-1.808 1.264s-1.36.661-2.064.8c-.704.138-1.376.101-2.016-.112s-1.185-.715-1.632-1.504c-.576-.384-1.02-.928-1.328-1.632a10.18 10.18 0 0 1-.688-2.272 15.868 15.868 0 0 1-.256-2.448 85.97 85.97 0 0 1-.032-2.16c0-.938.107-1.947.32-3.024.213-1.077.507-2.181.88-3.312s.821-2.256 1.345-3.376a29.048 29.048 0 0 1 1.728-3.184c.629-1.002 1.296-1.925 2-2.768S90.59.42 91.337-.135c.299-.213.576-.32.832-.32.277 0 .539.075.784.224s.458.341.64.576c.182.235.336.48.464.736.513-.171.949-.107 1.313.192.362.299.661.726.896 1.28a8.33 8.33 0 0 1 .528 1.92c.117.726.192 1.435.225 2.128.031.694.026 1.333-.017 1.92s-.111 1.02-.196 1.296zm-5.505-6.976a19.131 19.131 0 0 0-2.271 3.008 31.75 31.75 0 0 0-1.792 3.328 23.942 23.942 0 0 1 2-3.12 29.712 29.712 0 0 1 2.416-2.8l-.353-.416zm24.704.449c-.235.256-.555.485-.96.688s-.769.336-1.088.4c-.684.128-1.388.288-2.112.48a13.17 13.17 0 0 0-2.016.704 43.952 43.952 0 0 0-1.729 5.152c-.47 1.75-.896 3.509-1.28 5.28-.234 1.152-.485 2.293-.752 3.424s-.507 2.272-.72 3.424c-.043.235-.059.528-.048.88s.005.704-.016 1.056a4.554 4.554 0 0 1-.16.976c-.086.299-.235.523-.448.672-.384.256-.715.256-.992 0s-.479-.555-.607-.896a.653.653 0 0 1-.561-.064 1.549 1.549 0 0 1-.464-.416 2.465 2.465 0 0 1-.32-.576 1.524 1.524 0 0 1-.128-.544 27.123 27.123 0 0 1 .256-4.096 68.16 68.16 0 0 1 .721-4.256c.288-1.429.592-2.848.912-4.256.319-1.408.586-2.773.8-4.096-.235.064-.539.139-.912.224a4.292 4.292 0 0 1-1.088.112c-.353-.011-.651-.096-.896-.256s-.357-.442-.336-.848a33.47 33.47 0 0 0-.735.144c-.257.054-.502.07-.736.048-.192 0-.368-.091-.528-.272s-.262-.389-.304-.624a1.095 1.095 0 0 1 .112-.704c.116-.234.356-.426.72-.576 1.088-.405 2.165-.794 3.231-1.168 1.067-.373 2.145-.752 3.232-1.136a81.08 81.08 0 0 1 1.68-.624 19.973 19.973 0 0 1 1.712-.528c.683-.17 1.408-.304 2.177-.4a10.54 10.54 0 0 1 2.239-.048c.107 0 .235.021.385.064.148.043.276.102.384.176.106.075.181.166.224.272s0 .235-.128.384c-.106.171-.314.32-.624.448s-.549.224-.72.288c.299-.042.603-.059.912-.048.309.011.603.069.88.176.085.021.192.064.32.128s.25.139.367.224a.706.706 0 0 1 .24.272c.043.095.01.207-.096.336zm-9.536 3.231a28.12 28.12 0 0 0-.479 1.952c-.15.704-.288 1.419-.416 2.144-.129.726-.251 1.446-.368 2.16-.118.715-.229 1.381-.336 2 .17-.619.346-1.285.527-2 .182-.714.368-1.445.561-2.192.191-.747.373-1.482.544-2.208.17-.725.319-1.397.448-2.016l-.481.16z"/><path d="M123.014 5.721c.788.427 1.376 1.189 1.76 2.288.384 1.099.586 2.357.607 3.776.021 1.419-.133 2.917-.464 4.496a21.362 21.362 0 0 1-1.439 4.448c-.63 1.387-1.403 2.592-2.32 3.616-.918 1.024-1.963 1.686-3.136 1.984-.385.107-.8.155-1.248.144-.448-.01-.88-.08-1.296-.208s-.806-.314-1.168-.56a2.804 2.804 0 0 1-.864-.912 2.883 2.883 0 0 1-1.216-1.152 10.492 10.492 0 0 1-1.488-4.496c-.16-1.632-.08-3.269.24-4.912a18.742 18.742 0 0 1 1.6-4.736c.747-1.514 1.61-2.837 2.592-3.968a4.876 4.876 0 0 1 1.2-.976c.459-.267.944-.464 1.456-.592s1.029-.17 1.552-.128a4.032 4.032 0 0 1 1.488.416c.533.235.981.619 1.344 1.152.128.043.262.091.4.144s.271.112.4.176zm-5.441.672c-.576.214-1.109.614-1.6 1.2a11.419 11.419 0 0 0-1.297 1.92 16.255 16.255 0 0 0-.943 2.08 24.865 24.865 0 0 0-.576 1.712c.213-.576.475-1.184.784-1.824.309-.64.656-1.269 1.04-1.888s.8-1.205 1.248-1.76c.448-.554.896-1.034 1.344-1.44zm3.872 3.296a6.573 6.573 0 0 0-.224-1.088 2.941 2.941 0 0 0-.513-.992c-.726-.128-1.365.075-1.92.608a15.01 15.01 0 0 0-2.191 2.608c-.63.95-1.147 1.958-1.553 3.024a14.06 14.06 0 0 0-.815 3.296 11.624 11.624 0 0 0 .08 3.392c.106.619.341 1.195.704 1.728a2.68 2.68 0 0 0 1.216.288c.426-.021.88-.181 1.359-.48.48-.298.837-.608 1.072-.928.512-.747.96-1.595 1.344-2.544.385-.949.693-1.936.929-2.96.234-1.024.395-2.048.479-3.072s.097-1.984.033-2.88zm25.28-3.84c-.085.619-.362 1.291-.832 2.016-.47.726-1.051 1.472-1.744 2.24s-1.456 1.542-2.288 2.32c-.831.779-1.658 1.525-2.479 2.24s-1.6 1.376-2.336 1.984-1.36 1.125-1.872 1.552c.277.107.65.267 1.12.48.469.214.938.459 1.408.736.469.277.891.571 1.264.88.373.31.592.613.656.912l.191.16c.192.128.368.272.528.432s.288.331.384.512c.097.181.139.374.128.576-.011.203-.102.422-.271.656a3.815 3.815 0 0 0-.208.24 1.232 1.232 0 0 1-.24.24c-.107.085-.24.085-.4 0a4.345 4.345 0 0 0-.399-.192c-.47-.235-.977-.496-1.521-.784s-1.093-.565-1.647-.832c-.556-.267-1.115-.496-1.681-.688s-1.104-.32-1.615-.384c-.149.085-.294.299-.433.64-.139.342-.271.747-.399 1.216s-.251.981-.368 1.536l-.336 1.6c-.107.512-.208.981-.304 1.408a9.122 9.122 0 0 1-.272.992c-.235.576-.539.859-.912.848s-.667-.315-.88-.912c-.299 0-.523-.107-.672-.32a2.087 2.087 0 0 1-.32-.752c-.063-.288-.085-.586-.063-.896.021-.309.042-.571.063-.784.171-1.322.4-2.634.688-3.936.288-1.301.549-2.613.783-3.936.171-1.002.373-1.984.608-2.944.234-.96.469-1.941.704-2.944.106-.555.202-1.104.288-1.648.085-.544.192-1.093.32-1.648.063-.299.202-.496.416-.592a.969.969 0 0 1 .672-.048c.234.064.442.182.624.352a.749.749 0 0 1 .239.64.633.633 0 0 1 .465-.432c.224-.053.447-.037.672.048.224.085.416.235.576.448.159.213.218.491.176.832-.043.576-.14 1.163-.288 1.76-.149.598-.31 1.173-.48 1.728a57.488 57.488 0 0 0 3.696-3.712 66.383 66.383 0 0 0 3.376-4.032c.213-.298.389-.619.528-.96a2.1 2.1 0 0 0 .144-1.056 6.327 6.327 0 0 0-1.792 0 15.177 15.177 0 0 0-3.696 1.008c-.587.246-1.136.485-1.647.72-.619.299-1.232.614-1.84.944-.608.331-1.222.677-1.84 1.04-.3.192-.604.389-.912.592-.31.203-.614.379-.912.528-.192.085-.368.096-.528.032s-.299-.176-.416-.336c-.117-.16-.197-.341-.24-.544s-.031-.389.032-.56a3.497 3.497 0 0 1-.399.288c-.14.085-.272.181-.4.288-.171.107-.363.118-.576.032a1.036 1.036 0 0 1-.512-.448 1.208 1.208 0 0 1-.16-.736c.021-.277.16-.544.416-.8.49-.469 1.184-1.008 2.08-1.616a28.044 28.044 0 0 1 3.008-1.76 30.104 30.104 0 0 1 3.488-1.504c1.216-.437 2.384-.725 3.504-.864s2.139-.09 3.056.144c.917.235 1.632.757 2.145 1.568.874.384 1.578.928 2.111 1.632.53.704.722 1.558.573 2.56zm-2.4-.576a8.194 8.194 0 0 1-.849 1.616c-.373.565-.784 1.12-1.231 1.664a32.867 32.867 0 0 1-1.376 1.568c-.47.502-.896.955-1.28 1.36a14.361 14.361 0 0 0 2.112-1.856 60.077 60.077 0 0 0 1.92-2.144c.234-.277.421-.624.56-1.04s.186-.805.144-1.168z"/></svg>